<svg width="159" height="167" viewBox="0 0 159 167" fill="none" xmlns="http://www.w3.org/2000/svg">
<path opacity="0.1" d="M66.3668 29.2543C76.5217 28.7052 86.2011 23.605 95.4299 18.026C104.659 12.447 113.806 6.26457 123.723 3.30833C130.099 1.40481 137.391 1.13709 142.528 6.45515C147.472 11.5713 149.069 20.4037 149.928 28.5986C150.574 34.7652 150.949 41.2539 149.182 47.028C147.953 51.0347 145.771 54.4039 144.262 58.2427C139.011 71.5991 142.723 88.0705 148.414 101.123C151.083 107.249 154.179 113.077 156.238 119.591C158.297 126.105 159.251 133.567 157.449 140.21C155.662 146.789 151.406 151.74 146.795 155.218C137.429 162.276 126.393 164.295 115.632 165.452C91.8102 167.987 67.8602 166.888 43.9759 165.79C35.1365 165.382 26.2577 164.971 17.5627 162.841C12.7339 161.659 7.74765 159.785 4.24164 155.261C-0.207947 149.516 -1.31197 139.792 1.67047 132.589C6.67281 120.51 20.5029 117.508 24.0001 104.544C25.9238 97.4089 23.9476 89.459 21.1504 82.841C15.152 68.6451 5.0948 56.1894 4.5654 39.9607C4.20081 28.8141 9.03543 17.6539 16.5112 12.379C24.3458 6.84538 35.2109 7.54417 40.9905 16.6897C46.9423 26.112 57.402 29.7375 66.3668 29.2543Z" fill="#4EB3A6"/>
<path d="M56.0222 77.1124C56.0222 77.1124 49.8875 64.1766 40.6403 60.4498C36.7573 58.9147 33.3971 55.9223 31.0637 51.9214C29.9693 50.0087 29.025 47.9802 28.2425 45.8617" stroke="#535461" stroke-width="2" stroke-miterlimit="10"/>
<path d="M22.4375 43.4921C23.4908 44.707 28.3931 45.9651 28.3931 45.9651C28.3931 45.9651 27.1897 40.1703 26.1364 38.9532C25.6281 38.3866 24.9531 38.0804 24.2569 38.1003C23.5607 38.1202 22.899 38.4648 22.4141 39.0598C21.9292 39.6548 21.6599 40.4527 21.6643 41.2817C21.6687 42.1106 21.9464 42.9044 22.4375 43.4921Z" fill="#4EB3A6"/>
<path d="M25.2096 53.9679C26.6573 54.3083 31.3389 52.1929 31.3389 52.1929C31.3389 52.1929 27.6834 48.0999 26.2447 47.766C25.8993 47.6748 25.542 47.6666 25.1939 47.7419C24.8458 47.8173 24.5138 47.9747 24.2175 48.2049C23.9211 48.435 23.6664 48.7334 23.4683 49.0823C23.2701 49.4313 23.1325 49.8239 23.0636 50.237C22.9946 50.6501 22.9957 51.0755 23.0667 51.4881C23.1378 51.9008 23.2773 52.2924 23.4773 52.6399C23.6772 52.9874 23.9334 53.2839 24.2309 53.512C24.5284 53.74 24.8611 53.8951 25.2096 53.9679Z" fill="#4EB3A6"/>
<path d="M35.3006 65.3162C36.6868 64.7454 39.8374 60.1009 39.8374 60.1009C39.8374 60.1009 34.9514 58.7697 33.5616 59.3405C33.2277 59.4724 32.9191 59.6819 32.6537 59.9569C32.3884 60.2318 32.1716 60.5668 32.0158 60.9424C31.8601 61.3179 31.7686 61.7265 31.7466 62.1445C31.7247 62.5625 31.7727 62.9815 31.8878 63.3772C32.003 63.7729 32.183 64.1375 32.4175 64.4497C32.652 64.7619 32.9362 65.0156 33.2537 65.196C33.5712 65.3763 33.9157 65.4799 34.267 65.5005C34.6184 65.5212 34.9698 65.4585 35.3006 65.3162Z" fill="#4EB3A6"/>
<path d="M44.5731 71.8562C46.0208 71.5718 49.7776 67.6189 49.7776 67.6189C49.7776 67.6189 45.1467 65.3226 43.7008 65.6069C43.0049 65.7432 42.383 66.2029 41.9718 66.8851C41.5607 67.5672 41.394 68.4158 41.5085 69.2442C41.6229 70.0727 42.0092 70.813 42.5822 71.3025C43.1552 71.7919 43.8681 71.9903 44.564 71.854L44.5731 71.8562Z" fill="#4EB3A6"/>
<path d="M35.4268 47.6626C35.4286 49.4097 32.7666 54.4785 32.7666 54.4785C32.7666 54.4785 30.1082 49.4161 30.1082 47.6713C30.099 47.2492 30.1608 46.8292 30.2901 46.436C30.4194 46.0428 30.6135 45.6844 30.8611 45.382C31.1086 45.0796 31.4045 44.8392 31.7313 44.6751C32.0581 44.5109 32.4092 44.4264 32.7639 44.4264C33.1186 44.4264 33.4697 44.5109 33.7965 44.6751C34.1233 44.8392 34.4192 45.0796 34.6667 45.382C34.9142 45.6844 35.1083 46.0428 35.2376 46.436C35.3669 46.8292 35.4288 47.2492 35.4195 47.6713L35.4268 47.6626Z" fill="#4EB3A6"/>
<path d="M46.1816 55.4737C45.7437 57.141 41.9362 61.0293 41.9362 61.0293C41.9362 61.0293 40.6694 55.2518 41.111 53.5845C41.34 52.812 41.8118 52.1754 42.4272 51.8088C43.0426 51.4421 43.7535 51.3741 44.4102 51.6189C45.0669 51.8638 45.6181 52.4024 45.9479 53.1214C46.2776 53.8404 46.3601 54.6837 46.178 55.4737H46.1816Z" fill="#4EB3A6"/>
<path d="M55.7491 64.7733C55.5536 66.4967 52.3542 71.1002 52.3542 71.1002C52.3542 71.1002 50.2894 65.6609 50.4848 63.9311C50.5236 63.5119 50.6324 63.1063 50.8048 62.7379C50.9772 62.3696 51.2098 62.046 51.4888 61.7863C51.7678 61.5265 52.0876 61.3358 52.4295 61.2253C52.7713 61.1149 53.1283 61.0869 53.4793 61.1431C53.8304 61.1992 54.1685 61.3384 54.4737 61.5524C54.7789 61.7664 55.045 62.0509 55.2565 62.3891C55.468 62.7274 55.6205 63.1125 55.7051 63.522C55.7897 63.9315 55.8047 64.3569 55.7491 64.7733Z" fill="#4EB3A6"/>
<path opacity="0.25" d="M22.4375 43.4921C23.4908 44.707 28.3931 45.9651 28.3931 45.9651C28.3931 45.9651 27.1897 40.1703 26.1364 38.9532C25.6281 38.3866 24.9531 38.0804 24.2569 38.1003C23.5607 38.1202 22.899 38.4648 22.4141 39.0598C21.9292 39.6548 21.6599 40.4527 21.6643 41.2817C21.6687 42.1106 21.9464 42.9044 22.4375 43.4921Z" fill="black"/>
<path opacity="0.25" d="M25.2096 53.9679C26.6573 54.3083 31.3389 52.1929 31.3389 52.1929C31.3389 52.1929 27.6834 48.0999 26.2447 47.766C25.8993 47.6748 25.542 47.6666 25.1939 47.7419C24.8458 47.8173 24.5138 47.9747 24.2175 48.2049C23.9211 48.435 23.6664 48.7334 23.4683 49.0823C23.2701 49.4313 23.1325 49.8239 23.0636 50.237C22.9946 50.6501 22.9957 51.0755 23.0667 51.4881C23.1378 51.9008 23.2773 52.2924 23.4773 52.6399C23.6772 52.9874 23.9334 53.2839 24.2309 53.512C24.5284 53.74 24.8611 53.8951 25.2096 53.9679Z" fill="black"/>
<path opacity="0.25" d="M35.3006 65.3162C36.6868 64.7454 39.8374 60.1009 39.8374 60.1009C39.8374 60.1009 34.9514 58.7697 33.5616 59.3405C33.2277 59.4724 32.9191 59.6819 32.6537 59.9569C32.3884 60.2318 32.1716 60.5668 32.0158 60.9424C31.8601 61.3179 31.7686 61.7265 31.7466 62.1445C31.7247 62.5625 31.7727 62.9815 31.8878 63.3772C32.003 63.7729 32.183 64.1375 32.4175 64.4497C32.652 64.7619 32.9362 65.0156 33.2537 65.196C33.5712 65.3763 33.9157 65.4799 34.267 65.5005C34.6184 65.5212 34.9698 65.4585 35.3006 65.3162Z" fill="black"/>
<path opacity="0.25" d="M44.5731 71.8562C46.0208 71.5718 49.7776 67.6189 49.7776 67.6189C49.7776 67.6189 45.1467 65.3226 43.7008 65.6069C43.0049 65.7432 42.383 66.2029 41.9718 66.8851C41.5607 67.5672 41.394 68.4158 41.5085 69.2442C41.6229 70.0727 42.0092 70.813 42.5822 71.3025C43.1552 71.7919 43.8681 71.9903 44.564 71.854L44.5731 71.8562Z" fill="black"/>
<path opacity="0.25" d="M35.4268 47.6626C35.4286 49.4097 32.7666 54.4785 32.7666 54.4785C32.7666 54.4785 30.1082 49.4161 30.1082 47.6713C30.099 47.2492 30.1608 46.8292 30.2901 46.436C30.4194 46.0428 30.6135 45.6844 30.8611 45.382C31.1086 45.0796 31.4045 44.8392 31.7313 44.6751C32.0581 44.5109 32.4092 44.4264 32.7639 44.4264C33.1186 44.4264 33.4697 44.5109 33.7965 44.6751C34.1233 44.8392 34.4192 45.0796 34.6667 45.382C34.9142 45.6844 35.1083 46.0428 35.2376 46.436C35.3669 46.8292 35.4288 47.2492 35.4195 47.6713L35.4268 47.6626Z" fill="black"/>
<path opacity="0.25" d="M46.1816 55.4737C45.7437 57.141 41.9362 61.0293 41.9362 61.0293C41.9362 61.0293 40.6694 55.2518 41.111 53.5845C41.34 52.812 41.8118 52.1754 42.4272 51.8088C43.0426 51.4421 43.7535 51.3741 44.4102 51.6189C45.0669 51.8638 45.6181 52.4024 45.9479 53.1214C46.2776 53.8404 46.3601 54.6837 46.178 55.4737H46.1816Z" fill="black"/>
<path opacity="0.25" d="M55.7491 64.7733C55.5536 66.4967 52.3542 71.1002 52.3542 71.1002C52.3542 71.1002 50.2894 65.6609 50.4848 63.9311C50.5236 63.5119 50.6324 63.1063 50.8048 62.7379C50.9772 62.3696 51.2098 62.046 51.4888 61.7863C51.7678 61.5265 52.0876 61.3358 52.4295 61.2253C52.7713 61.1149 53.1283 61.0869 53.4793 61.1431C53.8304 61.1992 54.1685 61.3384 54.4737 61.5524C54.7789 61.7664 55.045 62.0509 55.2565 62.3891C55.468 62.7274 55.6205 63.1125 55.7051 63.522C55.7897 63.9315 55.8047 64.3569 55.7491 64.7733Z" fill="black"/>
<path d="M55.6699 76.856C55.6699 76.856 54.4647 62.0697 47.2877 54.2069C44.2605 50.93 42.2071 46.5735 41.4353 41.7902C41.0841 39.5163 40.909 37.2089 40.9123 34.8969" stroke="#535461" stroke-width="2" stroke-miterlimit="10"/>
<path d="M36.4138 29.9078C36.9567 31.5278 41.0175 35.0434 41.0175 35.0434C41.0175 35.0434 41.8898 29.1646 41.3414 27.5447C41.0775 26.7668 40.5647 26.1456 39.916 25.8178C39.2673 25.49 38.5358 25.4823 37.8823 25.7966C37.2289 26.1108 36.7071 26.7211 36.4317 27.4934C36.1563 28.2656 36.1498 29.1364 36.4138 29.9143V29.9078Z" fill="#4EB3A6"/>
<path d="M35.3801 40.8339C36.5799 41.8377 41.5872 42.1673 41.5872 42.1673C41.5872 42.1673 39.6364 36.6655 38.4366 35.6617C38.152 35.4082 37.8277 35.2252 37.4827 35.1236C37.1377 35.0221 36.779 35.0039 36.428 35.0703C36.077 35.1367 35.7408 35.2862 35.4392 35.51C35.1376 35.7339 34.8768 36.0275 34.6723 36.3735C34.4678 36.7195 34.3236 37.1108 34.2484 37.5243C34.1732 37.9378 34.1685 38.365 34.2345 38.7807C34.3005 39.1964 34.4359 39.5922 34.6326 39.9445C34.8294 40.2967 35.0836 40.5985 35.3801 40.8317V40.8339Z" fill="#4EB3A6"/>
<path d="M40.7474 56.0811C42.2095 56.2276 46.6721 53.4961 46.6721 53.4961C46.6721 53.4961 42.6547 49.9202 41.1925 49.7737C40.4904 49.7034 39.7935 49.9681 39.2553 50.5094C38.717 51.0508 38.3815 51.8245 38.3225 52.6603C38.2634 53.4962 38.4857 54.3257 38.9405 54.9664C39.3953 55.6071 40.0452 56.0066 40.7474 56.0768V56.0811Z" fill="#4EB3A6"/>
<path d="M46.9923 66.5268C48.4128 66.9576 53.1975 65.1761 53.1975 65.1761C53.1975 65.1761 49.7465 60.8441 48.326 60.4046C47.644 60.1941 46.9196 60.3147 46.3123 60.7399C45.705 61.1651 45.2645 61.86 45.0876 62.6719C44.9108 63.4837 45.0121 64.346 45.3693 65.0689C45.7264 65.7918 46.3103 66.3163 46.9923 66.5268Z" fill="#4EB3A6"/>
<path d="M46.8657 39.998C46.2722 41.5943 42.1209 44.9526 42.1209 44.9526C42.1209 44.9526 41.4151 39.0416 42.0087 37.4453C42.3044 36.6985 42.8338 36.119 43.4838 35.8306C44.1337 35.5422 44.8526 35.5679 45.4868 35.9021C46.121 36.2363 46.6203 36.8525 46.878 37.619C47.1357 38.3856 47.1313 39.2417 46.8657 40.0045V39.998Z" fill="#4EB3A6"/>
<path d="M54.0388 52.3243C53.0707 53.6362 48.2679 55.3552 48.2679 55.3552C48.2679 55.3552 49.0786 49.4636 50.0468 48.1517C50.2753 47.833 50.5547 47.5715 50.8689 47.3825C51.183 47.1934 51.5256 47.0806 51.8766 47.0505C52.2277 47.0204 52.5803 47.0737 52.914 47.2073C53.2476 47.3408 53.5556 47.5519 53.8201 47.8284C54.0846 48.1049 54.3003 48.4412 54.4547 48.8177C54.6091 49.1943 54.6991 49.6036 54.7194 50.0219C54.7398 50.4402 54.6901 50.8592 54.5733 51.2544C54.4564 51.6497 54.2747 52.0133 54.0388 52.3243Z" fill="#4EB3A6"/>
<path d="M59.6293 65.4475C58.8621 66.9339 54.3724 69.5943 54.3724 69.5943C54.3724 69.5943 54.3344 63.6251 55.0962 62.1365C55.4755 61.4492 56.0647 60.9648 56.7389 60.786C57.4132 60.6072 58.1195 60.7481 58.7079 61.1787C59.2964 61.6094 59.7208 62.296 59.8911 63.0929C60.0614 63.8899 59.9643 64.7344 59.6203 65.4475H59.6293Z" fill="#4EB3A6"/>
<path d="M54.2222 22.6408C53.8599 21.0734 53.4235 19.4982 53.118 17.9102C53.4846 19.4982 53.9232 21.0785 54.2222 22.6408Z" fill="url(#paint0_linear_151_277)"/>
<path d="M105.785 63.2266L106.871 63.7974C106.871 63.7974 113.948 96.5281 113.948 99.1734C113.948 101.819 98.9412 116.538 98.9412 116.538L96.5995 97.7236C96.5995 97.7236 99.9618 54.5775 105.785 63.2266Z" fill="#E8F5FF"/>
<path d="M72.8666 52.8155L79.137 48.9208C79.4882 47.1385 80.1114 45.4481 80.9756 43.9338C81.8931 42.357 83.1128 40.8081 84.6328 40.0003C88.4747 37.9495 68.3823 27.1851 68.3823 27.1851C68.0658 28.4782 67.6931 29.7509 67.2658 30.998C66.2307 34.0397 64.5133 37.9732 62.3001 39.0934C58.5379 40.9998 72.8666 52.8155 72.8666 52.8155Z" fill="#FFC1C7"/>
<path opacity="0.1" d="M67.2658 30.998C68.1243 34.5922 69.9096 37.7746 72.3696 40.0957C74.8296 42.4168 77.84 43.7594 80.9756 43.9338C81.8931 42.357 83.1128 40.8081 84.6328 40.0003C88.4747 37.9495 68.3823 27.1851 68.3823 27.1851C68.0658 28.4782 67.6931 29.7509 67.2658 30.998Z" fill="black"/>
<path d="M66.7011 25.5628C66.7003 29.0878 67.5778 32.534 69.2225 35.4653C70.8672 38.3967 73.2052 40.6816 75.9409 42.031C78.6765 43.3805 81.6869 43.7339 84.5913 43.0466C87.4957 42.3593 90.1637 40.662 92.2577 38.1696C94.3518 35.6772 95.7778 32.5015 96.3556 29.0442C96.9333 25.5869 96.6368 22.0033 95.5035 18.7466C94.3702 15.4899 92.4511 12.7065 89.9888 10.7483C87.5264 8.79009 84.6316 7.74513 81.6704 7.74555C79.7022 7.73471 77.7517 8.18816 75.9315 9.07969C74.1114 9.97123 72.4576 11.2832 71.0658 12.9398C69.674 14.5964 68.5717 16.5649 67.8225 18.7315C67.0733 20.8981 66.6922 23.2199 66.7011 25.5628Z" fill="#FFC1C7"/>
<path d="M64.5406 50.5277L68.6231 61.8674L72.2243 69.3941H83.7517L87.114 59.1035L85.7514 48.4317H76.9475L71.2634 48.0504L69.3434 47.2878L68.1056 48.1237L64.5406 50.5277Z" fill="#203A37"/>
<path opacity="0.1" d="M65.9465 35.4118C65.9465 35.4118 63.4004 36.058 65.6805 38.2833C67.9607 40.5086 75.8271 47.585 75.8271 47.585C75.8271 47.585 73.0638 50.5147 73.6357 53.9463L64.4807 47.8715L62.8521 38.1519C62.8521 38.1519 62.6693 35.2308 65.9465 35.4118Z" fill="black"/>
<path opacity="0.1" d="M74.0268 47.5851L79.8502 48.729C79.8502 48.729 78.6486 54.0175 79.2494 55.5189C79.2675 55.5656 79.2826 55.6139 79.2946 55.6633L81.6707 63.3085L79.89 69.3122L73.7264 59.306L75.8273 55.5189C75.8273 55.5189 73.6069 52.0162 72.2859 50.8013C70.9648 49.5863 74.0268 47.5851 74.0268 47.5851Z" fill="black"/>
<path d="M74.0268 47.2899L79.8502 48.4316C79.8502 48.4316 78.6486 53.7202 79.2494 55.2216C79.2675 55.2683 79.2826 55.3165 79.2946 55.3659L81.6707 63.0111L79.89 69.0148L73.7264 59.0022L75.8273 55.2152C75.8273 55.2152 73.6069 51.7125 72.2859 50.4975C70.9648 49.2825 74.0268 47.2899 74.0268 47.2899Z" fill="#DCE6F2"/>
<path d="M65.7022 34.8408C65.7022 34.8408 63.1561 35.4871 65.438 37.7124C67.72 39.9376 75.8271 47.585 75.8271 47.585C75.8271 47.585 72.825 49.9438 73.395 53.3733L64.24 47.3006L62.6114 37.581C62.6114 37.581 62.4304 34.6599 65.7022 34.8408Z" fill="#203A37"/>
<path opacity="0.1" d="M80.5755 44.608C80.5755 44.608 80.0199 45.8445 77.5679 48.0741C77.5679 48.0741 81.6504 50.6591 80.0887 54.2932L86.3338 52.3545L87.2947 48.7807L80.5755 44.608Z" fill="black"/>
<path d="M80.8166 44.3236C80.8166 44.3236 80.261 45.5601 77.809 47.7897C77.809 47.7897 81.8915 50.3618 80.3298 54.0067L86.573 52.0679L87.5339 48.4963L80.8166 44.3236Z" fill="#203A37"/>
<path opacity="0.1" d="M64.5406 50.5276L68.6231 61.8672L72.2171 69.3939H83.7517L87.114 59.1034L85.7532 48.4316H83.3047C83.3445 50.9218 82.5809 53.8472 82.6297 54.9351C82.713 56.723 80.3894 66.3695 80.3894 66.3695C80.3894 66.3695 75.5269 57.0074 73.6069 56.1737C72.3999 55.6502 69.8428 51.2945 68.1074 48.1235L64.5406 50.5276Z" fill="black"/>
<path d="M48.4586 110.201L48.873 110.821C48.873 110.821 45.8708 128.759 46.7014 132.833C46.8426 133.567 46.9232 134.316 46.9421 135.069V135.101C47.0887 139.246 46.0373 144.625 46.0373 144.625C46.0373 144.625 45.1976 160.479 45.6753 167H101.886C102.216 157.358 102.57 144.866 102.248 143.481C101.705 141.195 100.62 132.904 100.62 132.904L100.5 128.974C100.5 128.974 100.5 125.177 100.402 120.946C100.361 119.044 100.299 117.047 100.211 115.276C100.097 113.049 99.9373 111.172 99.7183 110.25C99.5834 109.551 99.5059 108.839 99.4867 108.122C99.4867 108.055 99.4867 107.986 99.4758 107.917C99.4758 107.702 99.4577 107.469 99.4505 107.23C99.4505 107.163 99.4505 107.097 99.4505 107.015C99.4161 105.627 99.4288 103.982 99.4668 102.275C99.4668 102.183 99.4668 102.088 99.4668 101.993C99.4975 100.714 99.5428 99.4083 99.5934 98.1675C99.7509 94.2899 99.9554 91.0113 99.9554 91.0113L106.859 63.7824L104.999 58.328L99.8359 54.5625L90.2901 47.7014C85.6339 43.1453 82.5684 43.6925 81.3994 44.1923C81.2858 44.2384 81.1747 44.2923 81.0664 44.3538C81.0302 44.3754 81.0012 44.3926 80.9741 44.412C80.9369 44.4329 80.9012 44.4574 80.8673 44.4852C81.1874 44.6686 81.4656 44.9413 81.678 45.2801C81.9174 45.6658 82.088 46.1056 82.1793 46.5726C82.2404 46.8621 82.2834 47.1566 82.3078 47.4537C82.3313 47.7661 82.3404 48.0892 82.3404 48.4145C82.3275 49.1278 82.2761 49.8394 82.1866 50.5449C82.1866 50.5579 82.1866 50.5751 82.1866 50.5923C82.1268 51.0964 82.0526 51.5897 81.9803 52.0529C81.9811 52.0607 81.9811 52.0687 81.9803 52.0766C81.897 52.6173 81.8138 53.117 81.7577 53.5479C81.7468 53.6254 81.7378 53.6965 81.7287 53.7633C81.6888 54.048 81.6701 54.3363 81.6726 54.625C81.6522 55.3219 81.5734 56.0147 81.4374 56.693C81.3903 56.9773 81.336 57.2811 81.2763 57.5977C81.1949 58.0286 81.1062 58.4982 81.0103 58.9764C80.9578 59.2392 80.9017 59.5107 80.8438 59.7799C80.8221 59.8876 80.7986 59.9953 80.7768 60.1052L80.7406 60.2754C80.3552 62.1 79.9372 63.916 79.6802 65.0146C79.5282 65.6608 79.4323 66.0594 79.4323 66.0594C79.4323 66.0594 76.707 60.8139 74.5318 57.8282C74.4992 57.7852 74.4703 57.7442 74.4395 57.7055C74.2242 57.4103 74.0124 57.1411 73.8097 56.9041C73.3664 56.3785 72.9683 56.0036 72.648 55.8658C72.5797 55.836 72.5137 55.7992 72.4507 55.7559C71.5604 55.1549 70.1235 52.9727 68.779 50.6871C68.6469 50.4717 68.5184 50.2369 68.3881 50.015C68.0895 49.5023 67.7999 48.9875 67.5267 48.4942C67.3168 48.1172 67.1159 47.751 66.9259 47.402C66.0211 45.726 65.3841 44.4766 65.3841 44.4766L64.1282 44.4098L63.9092 44.3969H63.7626L58.0605 44.0824C58.0605 44.0824 57.8144 44.1319 57.409 44.2289C57.3873 44.2289 57.3656 44.2289 57.342 44.2461C55.3189 44.7243 49.6981 46.2387 49.3543 48.3391C48.9345 50.9112 39.8682 54.3428 39.8682 54.3428C39.7488 56.0661 37.5283 57.2014 37.5283 57.2014C37.5283 57.2014 34.166 67.7784 35.0654 71.9231C35.954 76.016 32.7527 86.1407 32.6677 86.425L33.2811 87.347L48.4586 110.201Z" fill="#E8F5FF"/>
<path opacity="0.1" d="M65.9482 34.6599C65.9482 34.6599 60.3981 32.7858 59.1368 36.6439C57.8754 40.5021 55.0542 56.0833 55.0542 56.0833C55.0542 56.0833 62.3796 57.7269 64.2997 56.0833C65.4259 55.1078 66.8198 54.6739 68.203 54.8683L72.3453 58.2267L73.5686 57.7959C73.5686 57.7959 66.9417 46.0685 65.5013 42.0832C64.0608 38.098 63.574 36.3165 65.9482 34.6599Z" fill="black"/>
<path d="M66.1889 33.7982C66.1889 33.7982 60.6351 31.9241 59.3683 35.7822C58.1016 39.6404 55.2858 55.2216 55.2858 55.2216C55.2858 55.2216 62.6094 56.8652 64.5312 55.2216C65.6568 54.246 67.0502 53.8121 68.4328 54.0066L72.5787 57.365L73.802 56.9342C73.802 56.9342 67.1751 45.2068 65.7346 41.2215C64.2942 37.2363 63.8146 35.4591 66.1889 33.7982Z" fill="#E8F5FF"/>
<path opacity="0.1" d="M103.444 95.9572C103.444 95.9572 99.302 97.1721 98.5203 99.9596C97.7385 102.747 101.582 102.818 101.582 102.818C101.582 102.818 103.924 97.8873 103.444 95.9572Z" fill="black"/>
<path opacity="0.1" d="M88.0154 116.538C88.0154 116.538 98.1602 141.266 95.8185 143.625C93.4769 145.984 88.0154 116.538 88.0154 116.538Z" fill="black"/>
<path opacity="0.1" d="M74.0264 98.3162C74.0264 98.3162 65.921 122.335 67.5424 126.045C69.1639 129.754 64.0607 126.045 64.0607 126.045L74.0264 98.3162Z" fill="black"/>
<path d="M62.7395 122.042C62.7395 122.042 90.1157 123.615 82.1298 133.763C74.1438 143.911 57.7558 134.194 57.7558 134.194L62.7395 122.042Z" fill="#FFC1C7"/>
<path opacity="0.1" d="M66.7011 25.5628C66.6986 27.9002 67.0842 30.215 67.8358 32.3744C68.0873 32.4088 68.3388 32.4304 68.5813 32.4433C68.9432 31.4976 68.7496 30.4054 68.7424 29.365C68.7351 28.3245 69.0573 27.1009 69.8987 26.8209C71.5763 26.2586 72.7344 29.9918 74.3884 29.3176C75.6552 28.8049 75.324 26.5171 76.0533 25.1966C76.6306 24.1518 77.7869 23.8567 78.6863 23.2018C80.5991 21.8038 80.5412 19.5677 81.4297 17.4523C82.3599 15.2357 84.3252 15.8906 86.0317 17.1981C87.3274 18.1934 88.4457 19.5268 89.8319 20.3195C91.0317 21.0089 92.3799 21.2588 93.7099 21.2954C94.5288 21.3332 95.3479 21.2301 96.1421 20.9895C95.208 16.8091 93.0284 13.1758 90.0099 10.7672C86.9915 8.3586 83.3401 7.33914 79.7367 7.89891C76.1334 8.45869 72.824 10.5595 70.4259 13.8096C68.0278 17.0596 66.7045 21.237 66.7029 25.5628H66.7011Z" fill="black"/>
<path d="M86.0263 16.6273C87.3238 17.6225 88.4403 18.9538 89.8265 19.7509C91.0263 20.4381 92.3745 20.6879 93.7046 20.7246C95.3332 20.7677 97.0868 20.4273 98.1997 19.0271C99.2221 17.7346 99.4664 15.7463 99.0339 14.0509C98.6014 12.3556 97.5645 10.9489 96.3466 9.92996C95.1287 8.91103 93.7154 8.20662 92.9083 6.74824C92.4813 5.97704 92.2749 5.06797 91.9203 4.24723C90.7856 1.62128 88.234 0.199521 85.7675 0.0228783C83.301 -0.153765 80.8561 0.720833 78.5072 1.66867C76.1583 2.61651 73.7913 3.65914 71.3121 3.85517C70.2082 3.93703 69.0609 3.85517 68.0367 4.35278C66.6595 5.01843 65.7565 6.61037 65.1413 8.23031C64.4518 10.0571 64.0229 12.0518 64.0953 14.0466C64.2473 18.3054 66.6107 22.4845 65.572 26.5646C65.2969 27.6524 64.7811 28.7683 65.0562 29.8561C65.4579 31.4438 67.1789 31.8057 68.5705 31.8811C68.9324 30.9354 68.7388 29.8411 68.7316 28.8028C68.7243 27.7644 69.0465 26.5387 69.8861 26.2587C71.5655 25.7007 72.7236 29.4275 74.374 28.7554C75.6317 28.2405 75.306 25.9549 76.0371 24.6344C76.6143 23.5875 77.7725 23.2945 78.6701 22.6396C80.5829 21.2416 80.525 19.0055 81.4135 16.8901C82.3509 14.6627 84.318 15.3176 86.0263 16.6273Z" fill="#211F20"/>
<path d="M112.572 98.6005L113.953 99.1735C113.953 99.1735 113.41 108.893 115.22 111.681C117.029 114.468 109.277 121.398 109.277 121.398C109.277 121.398 98.6506 121.327 98.3502 120.321C98.0498 119.315 98.893 102.312 98.893 102.312C98.893 102.312 104.597 99.6668 104.117 95.451C104.117 95.451 105.858 105.384 108.439 104.955C111.019 104.527 113.949 101.961 112.572 98.6005Z" fill="#E8F5FF"/>
<path opacity="0.1" d="M107.966 107.963C105.954 107.963 104.323 106.187 104.323 103.997C104.323 101.806 105.954 100.031 107.966 100.031C109.978 100.031 111.609 101.806 111.609 103.997C111.609 106.187 109.978 107.963 107.966 107.963Z" fill="black"/>
<path d="M103.983 98.8869C103.983 98.8869 104.707 72.5886 111.008 78.448C117.309 84.3074 117.371 91.3149 116.171 93.3851C114.971 95.4552 111.124 105.819 111.124 105.819C110.522 106.234 109.846 106.474 109.152 106.518C108.457 106.562 107.764 106.41 107.128 106.074C106.492 105.738 105.933 105.227 105.495 104.583C105.057 103.94 104.754 103.182 104.609 102.372L103.983 98.8869Z" fill="#FFC1C7"/>
<path opacity="0.1" d="M64.6763 32.2732C64.7057 32.1576 64.7622 32.0545 64.8392 31.9759C65.1505 31.6377 65.82 31.5192 66.8298 31.6226L66.7882 32.1913C65.4418 32.0534 65.1758 32.3723 65.1414 32.4261V32.48L65.0998 32.551C64.9319 32.8196 64.813 33.127 64.7507 33.4534C64.6884 33.7798 64.684 34.1182 64.7379 34.4467C65.0328 36.2024 66.8443 37.6005 66.8624 37.6155L66.9058 37.6457L66.9329 37.6952C67.7147 39.0761 72.1357 42.973 73.292 43.9811L73.3934 43.8433C73.9109 44.3775 78.4603 49.1189 78.7064 50.9348C78.8657 52.0744 79.9442 52.516 80.3351 52.6388C80.7477 52.2661 82.0868 50.9973 82.7836 49.5755C83.4368 48.2378 80.8074 45.6269 80.5758 44.608L80.9377 44.1664C80.9757 44.3301 84.3525 48.087 83.4133 50.0064C82.6605 51.5466 81.2852 52.865 80.8038 53.3001C80.9576 54.9632 81.9149 64.7281 83.3862 67.0417C85.2139 69.9175 86.7503 84.4108 86.5802 89.471C86.43 93.9668 87.4162 102.459 90.7098 106.106C91.28 106.765 91.9679 107.262 92.7221 107.56C93.4763 107.859 94.2774 107.951 95.0656 107.829H95.1054H95.1452C95.1922 107.829 99.9697 108.411 103.983 104.382C107.268 101.093 109.128 95.7246 109.516 88.4219H109.595L109.628 86.2957C108.737 86.1303 107.935 85.5604 107.39 84.7058C106.845 83.8512 106.6 82.7784 106.705 81.7128C106.811 80.6473 107.259 79.6719 107.956 78.9917C108.653 78.3115 109.545 77.9793 110.443 78.065C111.342 78.1507 112.177 78.6476 112.774 79.4513C113.371 80.255 113.684 81.3029 113.645 82.3749C113.607 83.4469 113.221 84.4594 112.569 85.1998C111.916 85.9402 111.048 86.3508 110.147 86.3453H110.107L110.075 88.4585L110.234 88.4715C109.836 96.0111 107.881 101.588 104.443 105.033C101.83 107.611 98.4916 108.911 95.1036 108.671C94.8632 108.703 94.6215 108.718 94.3797 108.719C92.8268 108.728 91.3325 108.013 90.2175 106.726C86.7485 102.881 85.6935 94.0767 85.8581 89.4279C86.0391 84.0662 84.4267 70.0941 82.8089 67.55C81.2237 65.0534 80.2627 55.3251 80.0944 53.4402C79.5208 53.2484 78.2233 52.6431 78.0025 51.0706C77.8432 49.9331 74.8049 46.4283 72.9355 44.4874L72.9916 44.4098C71.9855 43.5352 68.8566 40.7779 67.3057 39.0071C66.8244 38.4578 66.3466 37.9085 65.8472 37.385C65.2464 36.7517 64.4827 35.7457 64.2818 34.5566C64.2134 34.1641 64.213 33.759 64.2809 33.3663C64.3487 32.9737 64.4833 32.6017 64.6763 32.2732Z" fill="black"/>
<path d="M80.8648 53.1644C80.9408 53.1019 82.7432 51.566 83.6462 49.7177C84.5836 47.7983 81.2068 44.0436 81.1706 43.8799L80.8087 44.3215C81.0385 45.3383 83.6679 47.9513 83.0146 49.2869C82.1913 50.9736 80.4576 52.4492 80.4395 52.4643L80.8648 53.1644Z" fill="#353146"/>
<path d="M73.527 44.3991L73.8093 43.9359C73.7514 43.8864 68.0674 38.9921 67.1716 37.4087L67.1426 37.3613L67.101 37.329C67.0829 37.3139 65.2715 35.918 64.9765 34.1602C64.9221 33.832 64.9262 33.4939 64.9885 33.1677C65.0509 32.8415 65.1701 32.5346 65.3384 32.2667L65.38 32.1935V32.1418C65.4162 32.0857 65.6823 31.7691 67.0286 31.907L67.0702 31.3361C66.0587 31.2327 65.3909 31.3512 65.0796 31.6894C65.0022 31.7687 64.9451 31.8725 64.915 31.9888C64.7193 32.3163 64.5821 32.6881 64.5117 33.0812C64.4414 33.4743 64.4394 33.8804 64.506 34.2744C64.7069 35.4657 65.4687 36.4717 66.0713 37.1028C66.569 37.6263 67.0485 38.1799 67.5281 38.7249C69.3468 40.7994 73.328 44.2289 73.527 44.3991Z" fill="#E8F5FF"/>
<path d="M109.861 85.5457L110.341 85.5562L110.287 89.026L109.808 89.0155L109.861 85.5457Z" fill="#E8F5FF"/>
<path d="M110.381 86.0717C108.447 86.0717 106.879 84.2054 106.879 81.9033C106.879 79.6012 108.447 77.735 110.381 77.735C112.315 77.735 113.882 79.6012 113.882 81.9033C113.882 84.2054 112.315 86.0717 110.381 86.0717Z" fill="#4EB3A6"/>
<path d="M110.38 85.3651C108.774 85.3651 107.472 83.8152 107.472 81.9033C107.472 79.9914 108.774 78.4415 110.38 78.4415C111.986 78.4415 113.288 79.9914 113.288 81.9033C113.288 83.8152 111.986 85.3651 110.38 85.3651Z" fill="#E8F5FF"/>
<path d="M94.6074 108.441C94.8492 108.441 95.0909 108.426 95.3313 108.396C98.7191 108.633 102.056 107.333 104.671 104.757C108.109 101.31 110.06 95.7397 110.462 88.1936L109.738 88.1398C109.351 95.4425 107.49 100.813 104.204 104.1C100.19 108.118 95.4145 107.547 95.3675 107.547H95.3277H95.2879C94.4994 107.668 93.6982 107.576 92.9438 107.277C92.1894 106.979 91.5011 106.482 90.9303 105.823C87.6385 102.176 86.6523 93.6846 86.8025 89.1889C86.9834 84.1244 85.4471 69.631 83.6175 66.7574C82.016 64.2391 81.0225 52.8887 81.0116 52.7746L80.9845 52.4514L80.7167 52.3954C80.7004 52.3954 79.1369 52.0421 78.9414 50.6505C78.6881 48.8367 74.1459 44.0954 73.6301 43.559L73.1578 44.2052C75.0344 46.144 78.0728 49.651 78.2248 50.7906C78.4456 52.3674 79.7431 52.9706 80.3149 53.1602C80.4959 55.0472 81.4496 64.7734 83.0294 67.2701C84.6472 69.8141 86.2596 83.7862 86.0786 89.1479C85.923 93.7967 86.9672 102.603 90.4362 106.446C91.5533 107.736 93.0511 108.452 94.6074 108.441Z" fill="#353146"/>
<g opacity="0.1">
<path d="M65.1599 20.4704C64.8631 19.1649 64.5048 17.8509 64.2551 16.5282C64.5537 17.8573 64.9138 19.1649 65.1599 20.4704Z" fill="black"/>
<path d="M68.187 30.7285C68.549 29.7828 68.3553 28.6885 68.3481 27.6502C68.3409 26.6118 68.663 25.3969 69.5027 25.1061C71.182 24.5481 72.3402 28.277 73.9905 27.6028C75.2573 27.0879 74.9225 24.8023 75.6536 23.4818C76.2309 22.4349 77.3872 22.1419 78.2848 21.487C80.1994 20.089 80.1415 17.8529 81.0282 15.7375C81.9602 13.5187 83.9236 14.1736 85.6319 15.4833C86.9295 16.4786 88.046 17.812 89.4322 18.6069C90.632 19.2941 91.9801 19.544 93.3102 19.5806C94.9299 19.6258 96.6924 19.2833 97.8054 17.8831C98.6631 16.806 98.9726 15.227 98.7952 13.7471C98.826 13.8483 98.8531 13.9496 98.8803 14.0508C99.3146 15.7462 99.0612 17.7388 98.046 19.027C96.9331 20.4272 95.1705 20.7676 93.5509 20.7245C92.219 20.6878 90.8727 20.438 89.6711 19.7508C88.2813 18.9537 87.1647 17.6224 85.8708 16.6272C84.1625 15.3175 82.1973 14.6626 81.2671 16.8814C80.3804 18.9968 80.4365 21.2329 78.5237 22.6309C77.6189 23.2772 76.4698 23.5788 75.8907 24.6257C75.1668 25.9505 75.4871 28.2318 74.2276 28.7466C72.579 29.4187 71.4209 25.692 69.7415 26.2499C68.9019 26.53 68.5779 27.7579 68.587 28.794C68.596 29.8302 68.7842 30.9267 68.4259 31.8724C67.0343 31.797 65.3133 31.4415 64.9098 29.8474C64.8542 29.6187 64.8286 29.3811 64.8338 29.143C65.4219 30.3515 66.9348 30.6617 68.187 30.7285Z" fill="black"/>
</g>
<path opacity="0.1" d="M35.4812 83.8076L33.3802 86.453C33.3802 86.453 31.699 101.03 30.8594 102.394C30.0197 103.758 28.0363 109.182 29.8985 113.255C29.8985 113.255 30.4992 115.472 30.1391 116.4C29.779 117.329 32.8391 121.975 32.8391 121.975C32.8391 121.975 36.8619 126.262 37.7034 126.906C38.5449 127.55 42.9857 132.695 44.4859 132.766C45.9861 132.837 46.4765 135.053 46.4765 135.053L54.942 135.411C54.942 135.411 59.6181 135.12 60.6351 135.907C60.6351 135.907 60.0922 127.402 65.3167 121.827L58.6536 118.968C58.6536 118.968 56.1309 117.676 55.351 116.325C54.8603 115.497 54.1643 114.872 53.3604 114.539C53.3604 114.539 51.5001 112.967 51.4404 112.109C51.3806 111.252 49.1656 110.201 49.1656 110.201L50.4197 97.4587L49.7592 76.3046C49.7592 76.3046 47.6582 58.58 43.2156 59.5817C38.7729 60.5834 35.4812 83.8076 35.4812 83.8076Z" fill="black"/>
<path d="M34.7575 83.8076L32.6566 86.453C32.6566 86.453 30.9754 101.03 30.1357 102.394C29.2961 103.758 27.3127 109.182 29.1748 113.255C29.1748 113.255 29.7738 115.472 29.4137 116.4C29.0536 117.329 32.1155 121.975 32.1155 121.975C32.1155 121.975 36.1383 126.262 36.9798 126.906C37.8213 127.55 42.2621 132.695 43.7623 132.766C45.2625 132.837 45.7529 135.053 45.7529 135.053L54.2184 135.411C54.2184 135.411 58.8981 135.12 59.9115 135.907C59.9115 135.907 59.3686 127.402 64.593 121.827L57.9299 118.968C57.9299 118.968 55.4073 117.676 54.6273 116.325C54.1367 115.497 53.4406 114.872 52.6368 114.539C52.6368 114.539 50.7764 112.967 50.7167 112.109C50.657 111.252 48.442 110.201 48.442 110.201L49.6961 97.4587L49.0356 76.3046C49.0356 76.3046 46.9346 58.58 42.4919 59.5817C38.0493 60.5834 34.7575 83.8076 34.7575 83.8076Z" fill="#E8F5FF"/>
<path opacity="0.1" d="M42.5679 105.177C42.5679 105.177 36.3844 103.238 34.7629 105.608C33.1415 107.978 42.5679 105.177 42.5679 105.177Z" fill="black"/>
<path opacity="0.1" d="M44.0085 108.428C41.9076 110.179 35.4236 110.25 35.4236 110.25L44.0085 108.428Z" fill="black"/>
<path opacity="0.1" d="M40.8267 117.182C40.6457 117.253 36.3695 122.686 34.5744 121.043C32.7792 119.399 40.8267 117.182 40.8267 117.182Z" fill="black"/>
<path opacity="0.1" d="M98.4167 71.587C98.4167 71.587 97.1609 81.8797 97.7798 86.0718C98.3986 90.2638 96.1402 95.4575 96.1402 95.4575L98.4167 71.587Z" fill="black"/>
<defs>
<linearGradient id="paint0_linear_151_277" x1="53.6701" y1="22.6408" x2="53.6701" y2="17.9102" gradientUnits="userSpaceOnUse">
<stop stop-color="#808080" stop-opacity="0.25"/>
<stop offset="0.54" stop-color="#808080" stop-opacity="0.12"/>
<stop offset="1" stop-color="#808080" stop-opacity="0.1"/>
</linearGradient>
</defs>
</svg>
