<svg width="159" height="165" viewBox="0 0 159 165" fill="none" xmlns="http://www.w3.org/2000/svg">
<path opacity="0.1" d="M92.6334 27.2543C82.4786 26.7052 72.7991 21.605 63.5703 16.026C54.3415 10.447 45.1944 4.26457 35.2773 1.30833C28.9011 -0.595189 21.6091 -0.862908 16.4726 4.45515C11.5286 9.57128 9.93161 18.4037 9.07261 26.5986C8.42654 32.7652 8.05173 39.2539 9.81786 45.028C11.0473 49.0347 13.2291 52.4039 14.7385 56.2427C19.9888 69.5991 16.2771 86.0705 10.5864 99.1229C7.91756 105.249 4.82136 111.077 2.76209 117.591C0.702822 124.105 -0.250975 131.567 1.55161 138.21C3.33816 144.789 7.59379 149.74 12.2053 153.218C21.5712 160.276 32.6069 162.295 43.3685 163.452C67.1901 165.987 91.14 164.888 115.024 163.79C123.864 163.382 132.743 162.971 141.438 160.841C146.266 159.659 151.253 157.785 154.759 153.261C159.208 147.516 160.312 137.792 157.33 130.589C152.327 118.51 138.497 115.508 135 102.544C133.076 95.4089 135.053 87.459 137.85 80.841C143.848 66.6451 153.905 54.1894 154.435 37.9607C154.799 26.8141 149.965 15.6539 142.489 10.379C134.654 4.84538 123.789 5.54417 118.01 14.6897C112.058 24.112 101.598 27.7375 92.6334 27.2543Z" fill="#4EB3A6"/>
<path d="M106.308 152.362C106.308 152.362 116.261 143.405 118.142 132.011C118.904 127.226 120.949 122.864 123.97 119.58C125.416 118.035 126.977 116.65 128.634 115.444" stroke="#535461" stroke-width="2" stroke-miterlimit="10"/>
<path d="M129.852 108.266C128.98 109.67 128.585 115.622 128.585 115.622C128.585 115.622 133.249 113.436 134.123 112.034C134.542 111.359 134.72 110.514 134.616 109.684C134.513 108.854 134.136 108.107 133.57 107.608C133.004 107.108 132.294 106.897 131.596 107.02C130.899 107.144 130.272 107.592 129.852 108.266Z" fill="#4EB3A6"/>
<path d="M121.488 112.936C121.397 114.679 123.78 119.931 123.78 119.931C123.78 119.931 126.699 115.075 126.792 113.333C126.827 112.502 126.585 111.688 126.12 111.067C125.654 110.447 125.002 110.07 124.305 110.018C123.607 109.965 122.921 110.243 122.394 110.789C121.867 111.335 121.542 112.107 121.489 112.936H121.488Z" fill="#4EB3A6"/>
<path d="M113.381 126.361C114.039 127.921 118.326 131.023 118.326 131.023C118.326 131.023 118.784 125.077 118.125 123.517C117.801 122.784 117.248 122.231 116.585 121.979C115.922 121.726 115.202 121.793 114.58 122.166C113.958 122.538 113.484 123.187 113.26 123.971C113.035 124.756 113.079 125.614 113.381 126.361Z" fill="#4EB3A6"/>
<path d="M109.166 138.157C109.594 139.827 113.378 143.745 113.378 143.745C113.378 143.745 114.676 137.978 114.247 136.307C114.041 135.505 113.576 134.833 112.953 134.439C112.331 134.046 111.603 133.962 110.929 134.208C110.255 134.453 109.691 135.007 109.36 135.748C109.029 136.488 108.959 137.355 109.166 138.157Z" fill="#4EB3A6"/>
<path d="M128.094 124.153C126.647 124.386 122.07 121.926 122.07 121.926C122.07 121.926 125.932 118.117 127.387 117.884C128.085 117.773 128.792 117.996 129.352 118.505C129.912 119.013 130.28 119.766 130.374 120.598C130.467 121.429 130.28 122.27 129.853 122.937C129.425 123.604 128.793 124.041 128.094 124.153Z" fill="#4EB3A6"/>
<path d="M123.018 137.877C121.571 137.582 117.83 133.608 117.83 133.608C117.83 133.608 122.474 131.35 123.92 131.645C124.266 131.713 124.597 131.861 124.895 132.082C125.193 132.303 125.451 132.592 125.654 132.932C125.858 133.272 126.002 133.657 126.08 134.064C126.158 134.472 126.167 134.893 126.108 135.305C126.048 135.716 125.92 136.109 125.732 136.462C125.544 136.814 125.299 137.119 125.012 137.358C124.724 137.597 124.4 137.766 124.057 137.855C123.714 137.945 123.36 137.952 123.015 137.877H123.018Z" fill="#4EB3A6"/>
<path d="M116.549 150.412C115.082 150.412 110.829 147.248 110.829 147.248C110.829 147.248 115.083 144.088 116.551 144.088C117.256 144.088 117.931 144.421 118.429 145.014C118.928 145.607 119.208 146.411 119.208 147.25C119.208 148.089 118.928 148.893 118.429 149.486C117.931 150.079 117.256 150.412 116.551 150.412H116.549Z" fill="#4EB3A6"/>
<path d="M79.8177 73.5513C81.2654 74.902 82.3223 78.0988 83.0877 81.6123C84.4232 87.7409 84.8594 94.8476 84.8594 94.8476C84.8594 94.8476 96.3868 91.7025 95.5471 90.2742C95.0187 89.3759 95.728 82.6075 96.3198 77.7003C96.6727 74.8007 96.9875 72.5496 96.9875 72.5496C96.9875 72.5496 75.8546 69.8332 79.8177 73.5513Z" fill="#FFCCD0"/>
<path opacity="0.1" d="M79.8177 73.2647C81.2654 74.6176 82.3223 77.8122 83.0877 81.3257C85.3844 82.1559 87.827 82.2307 90.1566 81.5424C92.4861 80.8541 94.6158 79.4282 96.3198 77.4159C96.6727 74.5142 96.9875 72.263 96.9875 72.263C96.9875 72.263 75.8546 69.5488 79.8177 73.2647Z" fill="black"/>
<path d="M73.621 65.5657C73.6198 69.3125 74.7322 72.9391 76.7612 75.8035C78.7902 78.6678 81.6051 80.5854 84.7076 81.2168C87.8101 81.8482 91.0003 81.1527 93.7134 79.2533C96.4266 77.354 98.4878 74.3733 99.5323 70.8388C100.577 67.3043 100.537 63.4439 99.4205 59.9408C98.3039 56.4377 96.1822 53.5178 93.4309 51.6979C90.6796 49.8779 87.4762 49.2753 84.3875 49.9967C81.2988 50.718 78.5241 52.7168 76.5545 55.6393C74.6564 58.4544 73.6216 61.956 73.621 65.5657Z" fill="#FFCCD0"/>
<path opacity="0.1" d="M63.1111 164.779H66.9113L67.2316 156.789L67.5664 148.519C67.5664 148.519 66.7032 148.366 65.3279 148.138L64.7723 148.049H64.7271C64.4267 149.728 64.1299 151.451 63.844 153.172C63.3681 156.228 63.1204 159.327 63.1038 162.435C63.1038 162.65 63.1038 162.866 63.1038 163.068C63.093 163.644 63.1038 164.219 63.1111 164.779Z" fill="black"/>
<path d="M63.8397 164.779H111.498C111.292 164.221 111.154 163.883 111.154 163.883C111.154 163.883 107.342 144.025 105.403 135.624C105.403 135.617 105.403 135.61 105.403 135.603C105.161 134.461 104.869 133.336 104.528 132.231C104.506 132.156 104.477 132.084 104.443 132.016C103.483 130.159 102.282 128.158 103.963 125.299C105.644 122.44 105.049 109.862 105.049 109.862C105.049 109.862 103.007 99.1408 100.847 93.4236C100.519 92.5381 100.053 91.7341 99.4751 91.054C99.287 90.835 99.0863 90.632 98.8743 90.4465C98.7131 90.3024 98.5451 90.1693 98.3712 90.048L98.3368 90.0222C97.4291 89.4096 96.4212 89.037 95.3817 88.93C94.6432 88.8381 93.8979 88.8627 93.1649 89.0032C89.6614 89.615 86.8565 90.6383 84.627 91.8037C78.5846 94.9639 76.7551 99.199 76.7189 99.2873L76.7044 99.3239C76.4619 99.9982 72.915 109.856 71.6374 114.455C71.3063 115.653 71.1253 116.495 71.1977 116.725C71.5596 117.867 68.4362 132.16 68.4362 132.16C68.4362 132.16 66.9885 139.054 65.5408 147.134C65.4774 147.47 65.4177 147.806 65.3598 148.146C65.101 149.613 64.8441 151.108 64.5961 152.601C64.1158 155.678 63.8681 158.799 63.856 161.929C63.8294 162.904 63.824 163.854 63.8397 164.779Z" fill="#203A37"/>
<path opacity="0.1" d="M95.6661 84.0141C95.6661 84.0141 98.9542 82.5062 98.9144 84.7939C98.8746 87.0816 98.1128 88.176 98.3534 88.5099C98.5941 88.8438 98.234 90.845 98.234 90.845C98.234 90.845 93.7913 90.845 91.7501 91.9393C89.7088 93.0336 82.1843 95.2266 81.2234 95.8944C80.2625 96.5622 76.6993 99.5565 76.6993 99.5565L76.379 93.8867C76.379 93.8867 80.0616 90.2655 86.104 88.4086C92.1464 86.5517 95.6661 84.0141 95.6661 84.0141Z" fill="black"/>
<path d="M95.6661 83.7276C95.6661 83.7276 98.9542 82.2197 98.9144 84.5074C98.8746 86.7951 98.1128 87.8895 98.3534 88.2234C98.5941 88.5573 98.234 90.5585 98.234 90.5585C98.234 90.5585 93.7914 90.5585 91.7501 91.655C89.7088 92.7515 82.1843 94.9423 81.2234 95.6079C80.2625 96.2735 76.6993 99.27 76.6993 99.27L76.3754 93.6174C76.3754 93.6174 80.058 89.9963 86.1004 88.1394C92.1428 86.2825 95.6661 83.7276 95.6661 83.7276Z" fill="#203A37"/>
<path opacity="0.1" d="M85.7405 97.3722C85.7405 97.3722 79.4574 105.47 79.7777 107.712C80.098 109.955 85.7405 97.3722 85.7405 97.3722Z" fill="black"/>
<path opacity="0.1" d="M95.9467 126.624C95.9467 126.624 100.552 131.675 101.909 131.962C103.267 132.248 100.869 133.201 99.309 132.44C97.7491 131.68 94.423 129.679 94.423 129.679L95.9467 126.624Z" fill="black"/>
<path d="M61.9688 164.779H72.709C74.2109 163.228 75.6315 161.791 76.5363 160.927C77.984 159.544 79.0282 157.508 79.6941 155.871C79.8443 155.498 79.9746 155.149 80.085 154.833C80.2827 154.287 80.4566 153.73 80.6062 153.163L72.6528 147.541C72.2133 147.986 71.8003 148.467 71.4169 148.98L71.321 149.111C70.8794 149.732 70.4903 150.436 70.456 151.013C70.4161 151.686 68.8454 154.286 67.2402 156.782C65.6116 159.322 63.9431 161.75 63.8327 161.914C63.8327 161.914 63.5576 162.36 63.1088 163.045C62.7921 163.54 62.4013 164.135 61.9688 164.779Z" fill="#FFCCD0"/>
<path opacity="0.1" d="M76.5544 55.6392C76.9363 56.6646 77.2783 57.7287 77.329 58.8704C77.4719 62.1663 77.2403 69.5358 80.3058 71.1902C81.8241 72.0045 83.4491 70.2165 85.114 70.1734C86.312 70.1433 87.4104 71.048 88.1415 72.179C88.8726 73.3099 89.3268 74.652 89.8571 75.9316C90.3397 77.093 90.8957 78.2092 91.5201 79.2705C91.7068 79.5954 91.9124 79.9042 92.1354 80.1947C94.0046 79.2558 95.6692 77.8213 97.0022 76.0006C98.3351 74.1799 99.3014 72.021 99.8273 69.6884C100.353 67.3559 100.425 64.9112 100.037 62.5406C99.6489 60.1701 98.8115 57.9362 97.5884 56.0093C96.3653 54.0824 94.7888 52.5133 92.9791 51.4215C91.1694 50.3297 89.1743 49.744 87.1456 49.7092C85.117 49.6743 83.1085 50.1911 81.273 51.2203C79.4376 52.2494 77.8238 53.7637 76.5544 55.6478V55.6392Z" fill="black"/>
<path d="M77.5696 58.2889C77.7144 61.5848 77.4809 68.9543 80.5483 70.6065C82.0665 71.4208 83.6916 69.635 85.3565 69.5919C86.5544 69.5596 87.6511 70.4665 88.384 71.5953C89.1169 72.7241 89.5675 74.0683 90.0995 75.35C90.5823 76.5114 91.1383 77.6275 91.7626 78.689C92.1354 79.318 92.548 79.9492 93.1216 80.3025C94.1205 80.9229 95.3312 80.5739 96.4025 80.1754C97.7923 79.6541 99.1616 79.0667 100.51 78.4133C100.479 78.1709 100.464 77.926 100.463 77.6808C100.503 77.7713 100.547 77.8553 100.59 77.9458L100.675 78.1225C100.829 78.4456 100.979 78.7687 101.117 79.1005C101.169 79.2275 101.22 79.359 101.265 79.4904C101.447 79.9794 101.561 80.5002 101.603 81.0328C101.696 82.4696 101.1 83.8332 100.572 85.1257C98.5397 90.1256 97.2838 95.972 98.8129 101.217C99.4753 103.499 100.623 105.526 101.46 107.73C102.925 111.633 103.356 115.974 102.696 120.176C102.278 122.787 101.441 125.372 101.647 128.02C102.009 132.576 105.31 135.967 108.616 138.297C110.402 139.551 112.588 140.667 114.484 139.676C113.276 137.996 112.964 135.671 112.704 133.478C111.991 127.497 111.276 121.513 110.559 115.526C110.273 113.143 109.988 110.76 109.703 108.378C109.171 103.902 108.632 99.3756 108.965 94.8712C109.207 91.5516 109.892 88.0274 108.683 85.0223C108.044 83.4304 106.906 82.112 106.551 80.3973C106.26 79.0035 106.531 77.5214 106.339 76.1018C106.234 75.456 106.056 74.8299 105.811 74.2406C105.498 73.441 105.09 72.6994 104.598 72.039C105.083 71.871 105.536 71.6405 105.811 71.158C105.033 70.5548 104.915 69.1955 105.268 68.1744C105.621 67.1534 106.327 66.3757 106.962 65.57C107.597 64.7644 108.209 63.8251 108.288 62.7265C108.442 60.6348 106.687 59.0149 106.377 56.9511C106.064 54.8508 107.302 52.8087 107.202 50.6825C107.087 48.1125 105.103 46.2449 103.145 45.1613C100.19 43.5331 96.9265 42.8642 93.6844 43.2225C91.046 43.5198 88.4926 44.4914 85.8614 44.8683C84.2743 45.0838 82.6655 45.1053 81.0893 45.437C79.5131 45.7688 77.9333 46.4689 76.824 47.8454C73.8997 51.4752 77.4031 54.4631 77.5696 58.2889Z" fill="#FFE0D0"/>
<path opacity="0.1" d="M80.0163 155.873C80.9392 155.397 82.6186 155.682 85.5013 154.637C88.3841 153.592 88.9397 148.87 88.9397 148.87V148.855C88.974 148.747 89.2419 148.045 91.0551 145.585C93.0584 142.869 97.3888 129.149 97.3888 129.149C97.3888 129.149 101.229 124.239 101.108 122.43C100.986 120.62 101.79 115.806 101.71 110.42C101.631 105.035 93.0656 101.463 93.0656 101.463C76.5744 97.984 80.4579 120.616 80.8976 122.331C81.3374 124.045 79.0554 128.677 79.0554 128.677C79.3775 130.693 77.7344 133.814 77.7344 133.814C77.7344 133.814 77.3363 136.576 77.2548 137.625C77.2503 137.674 77.2412 137.721 77.2277 137.767C76.9635 138.756 74.81 139.652 73.9341 140.197C73.013 140.77 70.0507 145.772 70.0507 145.772C69.4119 149.445 79.097 156.356 80.0163 155.873Z" fill="black"/>
<path d="M79.5367 155.012C80.4578 154.533 82.1389 154.82 85.0199 153.773C87.9008 152.726 88.4582 148.008 88.4582 148.008V147.993C88.4908 147.884 88.7604 147.183 90.5736 144.723C92.5769 142.007 96.9074 128.285 96.9074 128.285C96.9074 128.285 100.747 123.378 100.628 121.568C100.509 119.759 101.308 114.944 101.229 109.563C101.149 104.182 92.5896 100.612 92.5896 100.612C76.0984 97.1331 79.9819 119.765 80.4216 121.48C80.8613 123.194 78.5794 127.826 78.5794 127.826C78.9015 129.842 77.2583 132.964 77.2583 132.964C77.2583 132.964 76.8602 135.725 76.777 136.774C76.774 136.823 76.7654 136.871 76.7517 136.917C76.4874 137.905 74.334 138.801 73.4563 139.347C72.537 139.917 69.5728 144.922 69.5728 144.922C68.9304 148.588 78.6156 155.499 79.5367 155.012Z" fill="#203A37"/>
<path opacity="0.1" d="M92.2639 112.428C92.2639 112.428 85.0598 121.475 83.1795 121.475C81.2993 121.475 92.2639 112.428 92.2639 112.428Z" fill="black"/>
<path d="M79.5367 155.012C80.4578 154.533 82.139 154.82 85.0199 153.773C87.9009 152.726 88.4583 148.008 88.4583 148.008V147.993C86.5491 146.485 81.7137 142.227 79.8082 140.669C78.4672 139.577 77.3724 137.972 76.7318 136.908C76.4676 137.897 74.3141 138.793 73.4365 139.338C72.5172 139.909 69.553 144.913 69.553 144.913C68.9305 148.588 78.6156 155.499 79.5367 155.012Z" fill="#203A37"/>
<g opacity="0.1">
<path d="M105.8 71.1816C105.791 71.1988 105.778 71.2139 105.767 71.2311C105.713 71.1493 105.657 71.0674 105.599 70.9899C105.661 71.0612 105.728 71.1254 105.8 71.1816Z" fill="black"/>
<path d="M101.602 81.0564C101.526 79.8608 100.988 78.8074 100.485 77.7562C100.814 77.6054 101.144 77.4524 101.469 77.293C101.438 77.0513 101.423 76.8072 101.422 76.5627C101.931 77.6398 102.485 78.6997 102.562 79.9125C102.655 81.3515 102.059 82.7129 101.531 84.0054C99.497 89.0032 98.2429 94.8496 99.772 100.097C100.436 102.376 101.582 104.406 102.42 106.609C103.884 110.512 104.314 114.853 103.654 119.054C103.239 121.667 102.4 124.25 102.606 126.897C102.968 131.453 106.267 134.844 109.575 137.173C110.927 138.125 112.506 138.997 114.017 138.935C114.157 139.203 114.313 139.459 114.484 139.7C112.586 140.697 110.402 139.575 108.616 138.317C105.306 135.99 102 132.608 101.638 128.043C101.431 125.396 102.271 122.813 102.687 120.2C103.348 115.999 102.919 111.659 101.457 107.755C100.624 105.554 99.4662 103.522 98.8093 101.243C97.2802 95.9956 98.536 90.1492 100.568 85.1515C101.095 83.8503 101.694 82.4954 101.602 81.0564Z" fill="black"/>
<path d="M76.8273 47.8712C77.0053 47.6539 77.1964 47.4523 77.3991 47.2681C75.2059 50.6544 78.3727 53.5324 78.5302 57.1773C78.6713 60.4732 78.4397 67.8448 81.507 69.4949C83.0235 70.3114 84.6504 68.5234 86.3134 68.4803C87.5132 68.4501 88.6098 69.3571 89.3427 70.4858C90.0756 71.6146 90.5262 72.9589 91.0565 74.2384C91.5402 75.3996 92.0967 76.5158 92.7213 77.5774C93.0833 78.2086 93.5067 78.8376 94.0822 79.1931C95.0775 79.8113 96.2881 79.4645 97.3612 79.0638C98.4048 78.6732 99.4387 78.2423 100.463 77.7713C100.465 77.9957 100.481 78.2196 100.51 78.4412C99.16 79.0961 97.7901 79.6835 96.4003 80.2034C95.329 80.604 94.1184 80.9509 93.1213 80.3326C92.5476 79.9772 92.1314 79.346 91.7604 78.7148C91.1353 77.6547 90.5794 76.5392 90.0974 75.378C89.5653 74.0984 89.1165 72.752 88.3818 71.6233C87.6471 70.4945 86.5523 69.5897 85.3543 69.6199C83.6894 69.663 82.0626 71.4509 80.5461 70.6345C77.4788 68.9844 77.7122 61.6128 77.5693 58.3169C77.4028 54.4846 73.8993 51.4989 76.8273 47.8712Z" fill="black"/>
</g>
<path opacity="0.1" d="M100.673 78.1246C100.827 78.4477 100.977 78.7709 101.115 79.1026C101.167 79.2297 101.218 79.3611 101.263 79.4925C102.211 78.3551 104.52 75.6516 105.809 74.8136C105.496 74.0143 105.087 73.2728 104.596 72.6121C104.596 72.6121 101.525 74.5444 100.673 78.1246Z" fill="black"/>
<path d="M100.588 77.9479C101.299 74.1156 104.596 72.0411 104.596 72.0411C105.088 72.7015 105.496 73.4431 105.809 74.2427C104.45 75.1281 101.945 78.0965 101.115 79.1025L100.588 77.9479Z" fill="#203A37"/>
</svg>
